<svg xmlns="http://www.w3.org/2000/svg" viewBox="0 0 800 460" font-family="system-ui, sans-serif">
  <rect width="800" height="460" fill="#ffffff"/>
  <rect x="14" y="12" width="772" height="436" rx="10" fill="#f8fafc" stroke="#e2e8f0" stroke-width="2"/>
  <!-- barre de titre -->
  <rect x="14" y="12" width="772" height="40" rx="10" fill="#134e4a"/>
  <rect x="14" y="32" width="772" height="20" fill="#134e4a"/>
  <text x="30" y="38" font-size="16" font-weight="600" fill="#ffffff">QGIS — Projet « Kara · Points d'eau »</text>
  <circle cx="762" cy="32" r="5" fill="#f87171"/><circle cx="740" cy="32" r="5" fill="#fbbf24"/><circle cx="718" cy="32" r="5" fill="#34d399"/>
  <!-- barre de menus -->
  <g font-size="12" fill="#475569">
    <text x="26" y="72">Projet</text><text x="86" y="72">Éditer</text><text x="140" y="72">Vue</text><text x="184" y="72">Couche</text><text x="238" y="72">Préférences</text><text x="340" y="72">Vecteur</text><text x="402" y="72">Raster</text><text x="458" y="72">Traitement</text>
  </g>
  <line x1="14" y1="82" x2="786" y2="82" stroke="#e2e8f0" stroke-width="2"/>
  <!-- panneau couches -->
  <rect x="26" y="94" width="210" height="300" rx="8" fill="#ffffff" stroke="#e2e8f0"/>
  <text x="38" y="118" font-size="12" font-weight="700" fill="#134e4a">COUCHES</text>
  <rect x="38" y="130" width="186" height="52" rx="6" fill="#ecfdf5" stroke="#a7f3d0"/>
  <circle cx="52" cy="144" r="4" fill="#0d9488"/><text x="64" y="148" font-size="12" fill="#334155">villages_points.shp</text>
  <rect x="38" y="192" width="186" height="52" rx="6" fill="#f0f9ff" stroke="#bae6fd"/>
  <circle cx="52" cy="206" r="4" fill="#0ea5e9"/><text x="64" y="210" font-size="12" fill="#334155">routes_kara.shp</text>
  <rect x="38" y="254" width="186" height="52" rx="6" fill="#fefce8" stroke="#fde68a"/>
  <circle cx="52" cy="268" r="4" fill="#d97706"/><text x="64" y="272" font-size="12" fill="#334155">limites_region.shp</text>
  <text x="38" y="340" font-size="11" fill="#94a3b8">☑ visibles · ordre = ordre de dessin</text>
  <text x="38" y="360" font-size="11" fill="#94a3b8">La couche du haut se dessine</text>
  <text x="38" y="376" font-size="11" fill="#94a3b8">au-dessus des autres.</text>
  <!-- zone carte -->
  <rect x="248" y="94" width="524" height="300" rx="8" fill="#f1f5f9" stroke="#e2e8f0"/>
  <path d="M270 340 L420 130 L560 200 L640 300 L760 330 Z" fill="#fef3c7" stroke="#d97706" stroke-width="2"/>
  <path d="M520 120 L660 150 L700 260 L560 240 Z" fill="#dcfce7" stroke="#16a34a" stroke-width="2" opacity="0.9"/>
  <path d="M300 300 Q420 240 480 320 T620 300" fill="none" stroke="#0ea5e9" stroke-width="5"/>
  <circle cx="450" cy="250" r="7" fill="#0d9488" stroke="#ffffff" stroke-width="2"/>
  <circle cx="600" cy="200" r="7" fill="#0d9488" stroke="#ffffff" stroke-width="2"/>
  <circle cx="520" cy="310" r="7" fill="#0d9488" stroke="#ffffff" stroke-width="2"/>
  <text x="462" y="244" font-size="11" fill="#134e4a">point d'eau</text>
  <!-- barre d'état -->
  <rect x="248" y="404" width="524" height="28" rx="6" fill="#ffffff" stroke="#e2e8f0"/>
  <text x="262" y="422" font-size="11" fill="#475569">Échelle 1:50 000</text>
  <text x="420" y="422" font-size="11" fill="#475569">Rotation 0°</text>
  <text x="560" y="422" font-size="11" fill="#475569">EPSG:4326 — WGS 84</text>
  <!-- annotations -->
  <g font-size="11" fill="#134e4a">
    <line x1="100" y1="300" x2="250" y2="220" stroke="#cbd5e1" stroke-width="1"/>
    <circle cx="100" cy="304" r="3" fill="#134e4a"/>
    <text x="60" y="296">1. Panneau des couches</text>
    <line x1="620" y1="180" x2="560" y2="196" stroke="#cbd5e1" stroke-width="1"/>
    <text x="610" y="170">2. Zone de la carte</text>
    <line x1="700" y1="404" x2="700" y2="360" stroke="#cbd5e1" stroke-width="1"/>
    <text x="664" y="352">3. Barre d'état</text>
  </g>
</svg>
